<svg width="238" height="68" viewBox="0 0 238 68" fill="none" xmlns="http://www.w3.org/2000/svg">
<rect width="238" height="68" rx="25" fill="url(#paint0_linear_2_7)"/>
<path d="M44.0273 35.9688C44.0273 35.6094 43.8945 35.2422 43.6289 34.8672C43.3711 34.4844 43.043 34.1055 42.6445 33.7305C42.2539 33.3477 41.8555 32.9805 41.4492 32.6289C40.9727 33.082 40.5625 33.5039 40.2188 33.8945C39.875 34.2852 39.6094 34.6641 39.4219 35.0312C39.2422 35.3984 39.1523 35.7812 39.1523 36.1797C39.1523 36.6328 39.3438 37.0273 39.7266 37.3633C40.1094 37.6992 40.7266 37.8672 41.5781 37.8672C42.4375 37.8672 43.0586 37.7109 43.4414 37.3984C43.832 37.0859 44.0273 36.6094 44.0273 35.9688ZM39.9961 31.3281L39.5391 30.918L40.7812 29.3125C41.5547 29.9531 42.2578 30.5586 42.8906 31.1289C43.5312 31.6992 44.0859 32.2539 44.5547 32.793C45.0234 33.332 45.3828 33.8711 45.6328 34.4102C45.8906 34.9414 46.0195 35.4922 46.0195 36.0625C46.0195 36.8594 45.8359 37.5508 45.4688 38.1367C45.1016 38.7148 44.5859 39.1641 43.9219 39.4844C43.2578 39.7969 42.4805 39.9531 41.5898 39.9531C40.2305 39.9531 39.1523 39.6211 38.3555 38.957C37.5586 38.2852 37.1602 37.4336 37.1602 36.4023C37.1602 35.4961 37.4023 34.6523 37.8867 33.8711C38.3711 33.082 39.0742 32.2344 39.9961 31.3281ZM45.7617 46.3047L45.0703 44.4414C46.3438 44.168 47.3594 43.75 48.1172 43.1875C48.875 42.6328 49.4219 41.9648 49.7578 41.1836C50.1016 40.4023 50.2734 39.5391 50.2734 38.5938C50.2734 37.9297 50.1992 37.2344 50.0508 36.5078C49.9102 35.7734 49.7109 35.0273 49.4531 34.2695L51.3984 33.6133C51.6719 34.3945 51.8789 35.1758 52.0195 35.957C52.168 36.7383 52.2422 37.5 52.2422 38.2422C52.2422 39.5469 52.0117 40.7539 51.5508 41.8633C51.0977 42.9805 50.3906 43.9258 49.4297 44.6992C48.4766 45.4805 47.2539 46.0156 45.7617 46.3047ZM62.9414 37.9961C62.9414 39.5117 62.6602 40.8281 62.0977 41.9453C61.543 43.0703 60.707 43.9922 59.5898 44.7109C58.4805 45.4375 57.0938 45.9609 55.4297 46.2812L54.7383 44.418C55.9414 44.1836 56.9805 43.8516 57.8555 43.4219C58.7383 42.9922 59.4414 42.4609 59.9648 41.8281C60.4883 41.2031 60.8125 40.4883 60.9375 39.6836C60.6406 39.7773 60.2969 39.8594 59.9062 39.9297C59.5156 40 59.1719 40.0352 58.875 40.0352C57.4688 40.0352 56.4023 39.7344 55.6758 39.1328C54.957 38.5312 54.5977 37.6211 54.5977 36.4023C54.5977 35.8008 54.6797 35.1992 54.8438 34.5977C55.0156 33.9961 55.2656 33.4492 55.5938 32.957C55.9219 32.457 56.332 32.0586 56.8242 31.7617C57.3242 31.4648 57.9023 31.3164 58.5586 31.3164C59.332 31.3164 59.9922 31.5078 60.5391 31.8906C61.0938 32.2656 61.5469 32.7734 61.8984 33.4141C62.2578 34.0547 62.5195 34.7734 62.6836 35.5703C62.8555 36.3594 62.9414 37.168 62.9414 37.9961ZM58.9336 37.9141C59.2617 37.9141 59.6016 37.8906 59.9531 37.8438C60.3047 37.7891 60.6484 37.7109 60.9844 37.6094C60.9453 36.9531 60.8633 36.3672 60.7383 35.8516C60.6211 35.3359 60.4609 34.8984 60.2578 34.5391C60.0547 34.1719 59.8086 33.8945 59.5195 33.707C59.2383 33.5195 58.9102 33.4258 58.5352 33.4258C58.0195 33.4258 57.6172 33.5977 57.3281 33.9414C57.0469 34.2773 56.8477 34.6719 56.7305 35.125C56.6211 35.5781 56.5664 35.9805 56.5664 36.332C56.5664 36.9023 56.7617 37.3086 57.1523 37.5508C57.543 37.793 58.1367 37.9141 58.9336 37.9141ZM65.8828 23.7461H67.8867V35.0664C67.8867 36.168 68.0859 36.9102 68.4844 37.293C68.8906 37.6758 69.5039 37.8672 70.3242 37.8672H70.6055V40H70.3242C68.832 40 67.7188 39.6055 66.9844 38.8164C66.25 38.0195 65.8828 36.7656 65.8828 35.0547V23.7461ZM80.8242 24.4727L82.4062 26.0547L80.8242 27.6367L79.2422 26.0547L80.8242 24.4727ZM82.8281 27.4375L84.4102 29.0195L82.8281 30.6016L81.2461 29.0195L82.8281 27.4375ZM78.8203 27.4375L80.4023 29.0195L78.8203 30.6016L77.2383 29.0195L78.8203 27.4375ZM84.5742 40C83.8242 40 83.207 39.8438 82.7227 39.5312C82.2461 39.2188 81.8633 38.7773 81.5742 38.207C81.1367 38.8398 80.6211 39.2969 80.0273 39.5781C79.4336 39.8594 78.8242 40 78.1992 40C77.3008 40 76.6055 39.8477 76.1133 39.543C75.6289 39.2305 75.2422 38.7852 74.9531 38.207C74.5859 38.7852 74.0977 39.2305 73.4883 39.543C72.8789 39.8477 72.0469 40 70.9922 40H70.1719V37.8672H71.0156C72.0156 37.8672 72.7656 37.6406 73.2656 37.1875C73.7656 36.7266 74.0156 36.0039 74.0156 35.0195C74.0156 34.8789 74.0117 34.7344 74.0039 34.5859C73.9961 34.4375 73.9844 34.2539 73.9688 34.0352C73.9531 33.8164 73.9297 33.543 73.8984 33.2148L75.8555 32.9688L76.043 35.3594C76.0742 35.7969 76.1719 36.207 76.3359 36.5898C76.5078 36.9727 76.75 37.2812 77.0625 37.5156C77.375 37.75 77.7617 37.8672 78.2227 37.8672C79.0508 37.8672 79.6406 37.6016 79.9922 37.0703C80.3516 36.5391 80.5312 35.8555 80.5312 35.0195C80.5312 34.8789 80.5273 34.7344 80.5195 34.5859C80.5117 34.4297 80.5 34.2461 80.4844 34.0352C80.4688 33.8164 80.4453 33.543 80.4141 33.2148L82.3711 32.9688L82.5586 35.3594C82.5898 35.7812 82.6758 36.1836 82.8164 36.5664C82.9648 36.9492 83.1797 37.2617 83.4609 37.5039C83.75 37.7461 84.1172 37.8672 84.5625 37.8672C84.9531 37.8672 85.2734 37.75 85.5234 37.5156C85.7812 37.2812 85.9727 36.9531 86.0977 36.5312C86.2305 36.1016 86.2969 35.6055 86.2969 35.043C86.2969 34.7617 86.2852 34.4688 86.2617 34.1641C86.2461 33.8594 86.2188 33.457 86.1797 32.957L88.1367 32.7227L88.3242 35.3594C88.3555 35.8594 88.4648 36.2969 88.6523 36.6719C88.8398 37.0469 89.0977 37.3398 89.4258 37.5508C89.7617 37.7617 90.168 37.8672 90.6445 37.8672H90.9727V40H90.668C89.8477 40 89.1641 39.8516 88.6172 39.5547C88.0703 39.25 87.6953 38.7969 87.4922 38.1953C87.1641 38.7734 86.7852 39.2188 86.3555 39.5312C85.9336 39.8438 85.3398 40 84.5742 40ZM98.1562 33.6719C97.7656 33.6719 97.4102 33.8047 97.0898 34.0703C96.7695 34.3281 96.4805 34.6641 96.2227 35.0781C95.9648 35.4922 95.7344 35.9219 95.5312 36.3672C95.7812 36.625 96.0273 36.8555 96.2695 37.0586C96.5117 37.2539 96.75 37.4258 96.9844 37.5742C97.3125 37.7852 97.6211 37.9414 97.9102 38.043C98.207 38.1445 98.4688 38.1953 98.6953 38.1953C99.2812 38.1953 99.7148 38.0469 99.9961 37.75C100.285 37.4531 100.43 37.0195 100.43 36.4492C100.43 35.6367 100.227 34.9727 99.8203 34.457C99.4219 33.9336 98.8672 33.6719 98.1562 33.6719ZM98.7188 40.2695C98.1953 40.2695 97.7031 40.1914 97.2422 40.0352C96.7812 39.8867 96.3281 39.6602 95.8828 39.3555C95.4375 39.0508 94.9766 38.6719 94.5 38.2188C94.1641 38.6016 93.8398 38.9258 93.5273 39.1914C93.2148 39.457 92.8672 39.6602 92.4844 39.8008C92.1016 39.9336 91.625 40 91.0547 40H90.5625V37.8672H90.9961C91.5195 37.8672 91.9609 37.7188 92.3203 37.4219C92.6797 37.1172 93 36.7266 93.2812 36.25C93.5625 35.7734 93.8398 35.2695 94.1133 34.7383C94.3945 34.1992 94.707 33.6914 95.0508 33.2148C95.3945 32.7383 95.8086 32.3516 96.293 32.0547C96.7852 31.75 97.3906 31.5977 98.1094 31.5977C98.9766 31.5977 99.7305 31.8086 100.371 32.2305C101.02 32.6445 101.52 33.2031 101.871 33.9062C102.23 34.6094 102.41 35.3945 102.41 36.2617C102.41 37.1055 102.266 37.8281 101.977 38.4297C101.688 39.0234 101.266 39.4805 100.711 39.8008C100.164 40.1133 99.5 40.2695 98.7188 40.2695ZM122.625 28.5039L124.266 30.1328L122.625 31.7852L120.996 30.1328L122.625 28.5039ZM118.734 28.5039L120.375 30.1328L118.734 31.7852L117.105 30.1328L118.734 28.5039ZM127.758 32.8398L129.715 32.6055L129.914 35.3711C129.961 36.1133 130.176 36.7148 130.559 37.1758C130.941 37.6367 131.512 37.8672 132.27 37.8672H132.527V40H132.27C131.387 40 130.66 39.8359 130.09 39.5078C129.527 39.1719 129.062 38.6367 128.695 37.9023C128.266 38.4023 127.758 38.8086 127.172 39.1211C126.586 39.4258 125.875 39.6484 125.039 39.7891C124.203 39.9297 123.188 40 121.992 40H120.035C118.559 40 117.266 39.8867 116.156 39.6602C115.055 39.4336 114.133 39.0898 113.391 38.6289C112.656 38.168 112.102 37.582 111.727 36.8711C111.359 36.1523 111.176 35.3008 111.176 34.3164C111.176 33.7773 111.234 33.25 111.352 32.7344C111.477 32.2188 111.637 31.7227 111.832 31.2461L113.648 31.9258C113.523 32.2695 113.418 32.6367 113.332 33.0273C113.254 33.418 113.215 33.7891 113.215 34.1406C113.215 34.8281 113.359 35.4102 113.648 35.8867C113.938 36.3555 114.363 36.7383 114.926 37.0352C115.496 37.3242 116.207 37.5352 117.059 37.668C117.91 37.8008 118.902 37.8672 120.035 37.8672H121.992C123.234 37.8672 124.289 37.7656 125.156 37.5625C126.031 37.3594 126.699 37.0469 127.16 36.625C127.621 36.1953 127.852 35.6406 127.852 34.9609C127.852 34.6406 127.84 34.2852 127.816 33.8945C127.793 33.5039 127.773 33.1523 127.758 32.8398ZM140.145 40C139.246 40 138.551 39.8477 138.059 39.543C137.574 39.2305 137.188 38.7852 136.898 38.207C136.531 38.7852 136.043 39.2305 135.434 39.543C134.824 39.8477 133.992 40 132.938 40H132.117V37.8672H132.961C133.961 37.8672 134.711 37.6406 135.211 37.1875C135.711 36.7266 135.961 36.0039 135.961 35.0195C135.961 34.8789 135.957 34.7344 135.949 34.5859C135.941 34.4375 135.93 34.2539 135.914 34.0352C135.898 33.8164 135.875 33.543 135.844 33.2148L137.801 32.9688L137.988 35.3594C138.02 35.7969 138.117 36.207 138.281 36.5898C138.453 36.9727 138.695 37.2812 139.008 37.5156C139.32 37.75 139.707 37.8672 140.168 37.8672C140.996 37.8672 141.586 37.6016 141.938 37.0703C142.297 36.5391 142.477 35.8555 142.477 35.0195C142.477 34.8789 142.473 34.7344 142.465 34.5859C142.457 34.4297 142.445 34.2461 142.43 34.0352C142.414 33.8164 142.391 33.543 142.359 33.2148L144.316 32.9688L144.504 35.3594C144.535 35.7812 144.621 36.1836 144.762 36.5664C144.91 36.9492 145.125 37.2617 145.406 37.5039C145.695 37.7461 146.055 37.8672 146.484 37.8672C146.867 37.8672 147.188 37.7461 147.445 37.5039C147.703 37.2539 147.895 36.9219 148.02 36.5078C148.152 36.0859 148.219 35.6133 148.219 35.0898C148.219 34.6523 148.176 34.168 148.09 33.6367C148.004 33.1055 147.871 32.5195 147.691 31.8789L149.695 31.3398C149.883 31.957 150.016 32.5625 150.094 33.1562C150.172 33.75 150.211 34.332 150.211 34.9023C150.211 35.8398 150.094 36.6953 149.859 37.4688C149.625 38.2344 149.238 38.8477 148.699 39.3086C148.16 39.7617 147.43 39.9922 146.508 40C145.766 40 145.152 39.8438 144.668 39.5312C144.191 39.2188 143.809 38.7773 143.52 38.207C143.082 38.8398 142.566 39.2969 141.973 39.5781C141.379 39.8594 140.77 40 140.145 40ZM155.168 23.7461V39.9883H153.164V23.7461H155.168ZM162.07 31.3164C162.711 31.3164 163.293 31.4609 163.816 31.75C164.348 32.0312 164.809 32.4531 165.199 33.0156C165.59 33.5703 165.891 34.2539 166.102 35.0664C166.32 35.8789 166.438 36.8125 166.453 37.8672H167.859V40H166.266C166.094 40.8984 165.75 41.7656 165.234 42.6016C164.727 43.4453 163.969 44.1875 162.961 44.8281C161.953 45.4766 160.617 45.9609 158.953 46.2812L158.262 44.418C159.441 44.1914 160.453 43.8789 161.297 43.4805C162.148 43.082 162.832 42.5938 163.348 42.0156C163.871 41.4375 164.227 40.7656 164.414 40H162.562C161.078 40 159.965 39.7031 159.223 39.1094C158.488 38.5078 158.121 37.6055 158.121 36.4023C158.121 35.8008 158.203 35.1992 158.367 34.5977C158.531 33.9961 158.777 33.4492 159.105 32.957C159.441 32.457 159.855 32.0586 160.348 31.7617C160.84 31.4648 161.414 31.3164 162.07 31.3164ZM162.445 37.8672H164.52C164.473 37.1172 164.387 36.4648 164.262 35.9102C164.137 35.3477 163.973 34.8828 163.77 34.5156C163.566 34.1484 163.32 33.875 163.031 33.6953C162.742 33.5156 162.41 33.4258 162.035 33.4258C161.535 33.4258 161.141 33.5977 160.852 33.9414C160.57 34.2773 160.371 34.6719 160.254 35.125C160.145 35.5781 160.09 35.9805 160.09 36.332C160.09 36.8789 160.273 37.2734 160.641 37.5156C161.016 37.75 161.617 37.8672 162.445 37.8672ZM174.715 24.7656L176.414 26.4648L174.715 28.1641L173.016 26.4648L174.715 24.7656ZM167.438 37.8672H169.406C170.633 37.8672 171.781 37.707 172.852 37.3867C173.93 37.0586 174.996 36.6328 176.051 36.1094C177.113 35.5859 178.227 35.0195 179.391 34.4102C179.094 34.3008 178.84 34.2031 178.629 34.1172C178.426 34.0312 178.207 33.9375 177.973 33.8359C177.738 33.7266 177.43 33.5977 177.047 33.4492C176.492 33.2227 176.004 33.0273 175.582 32.8633C175.16 32.6992 174.797 32.5742 174.492 32.4883C174.188 32.3945 173.934 32.3477 173.73 32.3477C173.254 32.3477 172.793 32.4883 172.348 32.7695C171.91 33.043 171.539 33.375 171.234 33.7656L170.918 34.1641L169.125 33.2852L169.301 33.0039C169.816 32.168 170.453 31.5 171.211 31C171.977 30.4922 172.82 30.2383 173.742 30.2383C174.25 30.2383 174.812 30.3477 175.43 30.5664C176.055 30.7773 176.73 31.0586 177.457 31.4102C178.09 31.7148 178.664 31.9805 179.18 32.207C179.695 32.4336 180.168 32.6211 180.598 32.7695C181.035 32.918 181.445 33.0312 181.828 33.1094C182.211 33.1875 182.578 33.2383 182.93 33.2617V35.2891C182.602 35.3281 182.23 35.418 181.816 35.5586C181.402 35.6992 180.906 35.9062 180.328 36.1797C179.75 36.4531 179.047 36.8086 178.219 37.2461C177.219 37.7773 176.25 38.25 175.312 38.6641C174.383 39.0781 173.434 39.4062 172.465 39.6484C171.504 39.8828 170.473 40 169.371 40H167.438V37.8672ZM182.543 46.3047L181.852 44.4414C183.125 44.168 184.141 43.75 184.898 43.1875C185.656 42.6328 186.203 41.9648 186.539 41.1836C186.883 40.4023 187.055 39.5391 187.055 38.5938C187.055 37.9297 186.98 37.2344 186.832 36.5078C186.691 35.7734 186.492 35.0273 186.234 34.2695L188.18 33.6133C188.453 34.3945 188.66 35.1758 188.801 35.957C188.949 36.7383 189.023 37.5 189.023 38.2422C189.023 39.5469 188.793 40.7539 188.332 41.8633C187.879 42.9805 187.172 43.9258 186.211 44.6992C185.258 45.4805 184.035 46.0156 182.543 46.3047ZM194.039 37.8906C195.055 37.8906 195.895 37.8047 196.559 37.6328C197.223 37.4531 197.719 37.1914 198.047 36.8477C198.375 36.5039 198.539 36.0742 198.539 35.5586C198.539 35.0664 198.375 34.5586 198.047 34.0352C197.719 33.5117 197.199 32.9648 196.488 32.3945C195.777 31.8164 194.844 31.2109 193.688 30.5781L194.613 28.7266C195.613 29.2422 196.484 29.7695 197.227 30.3086C197.977 30.8477 198.594 31.4023 199.078 31.9727C199.57 32.543 199.938 33.125 200.18 33.7188C200.422 34.3047 200.543 34.9062 200.543 35.5234C200.543 36.5 200.32 37.3203 199.875 37.9844C199.43 38.6484 198.742 39.1484 197.812 39.4844C196.883 39.8125 195.684 39.9766 194.215 39.9766C193.707 39.9766 193.211 39.9531 192.727 39.9062C192.25 39.8594 191.801 39.7891 191.379 39.6953V37.5742C191.887 37.6758 192.359 37.7539 192.797 37.8086C193.242 37.8633 193.656 37.8906 194.039 37.8906Z" fill="white"/>
<defs>
<linearGradient id="paint0_linear_2_7" x1="0" y1="34" x2="238" y2="34" gradientUnits="userSpaceOnUse">
<stop stop-color="#454CFF"/>
<stop offset="1" stop-color="#7331FF"/>
</linearGradient>
</defs>
</svg>
